<svg width="24" height="24" viewBox="0 0 24 24" fill="none" xmlns="http://www.w3.org/2000/svg">
<rect width="24" height="24" fill="url(#paint0_linear_2301_76)"/>
<path d="M17.25 21C19.3211 21 21 19.3211 21 17.25C21 15.1789 19.3211 13.5 17.25 13.5C15.1789 13.5 13.5 15.1789 13.5 17.25C13.5 19.3211 15.1789 21 17.25 21Z" fill="white"/>
<path d="M9.25 13.5H4.25C3.55964 13.5 3 14.0596 3 14.75V19.75C3 20.4404 3.55964 21 4.25 21H9.25C9.94036 21 10.5 20.4404 10.5 19.75V14.75C10.5 14.0596 9.94036 13.5 9.25 13.5Z" fill="white"/>
<path d="M3.83659 10.5H9.67219C9.8082 10.4989 9.94192 10.4605 10.0617 10.3881C10.1814 10.3157 10.2836 10.2116 10.3592 10.0847C10.4348 9.95781 10.4817 9.81209 10.4956 9.66023C10.5095 9.50838 10.4902 9.35501 10.4392 9.21349L7.47967 3.48268C7.40758 3.33643 7.3019 3.21454 7.17361 3.12965C7.04533 3.04477 6.89914 3 6.75022 3C6.6013 3 6.45511 3.04477 6.32682 3.12965C6.19854 3.21454 6.09286 3.33643 6.02077 3.48268L3.06128 9.21349C3.01124 9.35177 2.9914 9.50147 3.00341 9.65011C3.01542 9.79875 3.05894 9.94201 3.13033 10.0679C3.20173 10.1938 3.29892 10.2988 3.41381 10.3739C3.52869 10.4491 3.65793 10.4923 3.79074 10.5" fill="white"/>
<defs>
<linearGradient id="paint0_linear_2301_76" x1="20.7" y1="3" x2="1.2" y2="23.1" gradientUnits="userSpaceOnUse">
<stop stop-color="#67E8F9"/>
<stop offset="1" stop-color="#0EA5E9"/>
</linearGradient>
</defs>
</svg>
