<svg width="24" height="24" viewBox="0 0 24 24" fill="none" xmlns="http://www.w3.org/2000/svg">
<g clip-path="url(#clip0_2313_18)">
<path fill-rule="evenodd" clip-rule="evenodd" d="M24 0H0V24H24V0ZM9.21998 16.304H11.898C11.9153 16.304 11.9326 16.304 11.9499 16.3039M11.9499 16.3039L9.21998 16.304V7.49H11.95C12.5566 7.49 13.0593 7.57667 13.458 7.75C13.874 7.92334 14.1773 8.18333 14.368 8.53C14.576 8.85933 14.68 9.284 14.68 9.804C14.68 10.3067 14.576 10.7313 14.368 11.078C14.1773 11.4247 13.874 11.6933 13.458 11.884C13.0593 12.0573 12.5566 12.144 11.95 12.144L11.9499 16.3039C13.4194 16.2989 14.7282 16.0823 15.876 15.654C17.0373 15.2207 17.9473 14.5273 18.606 13.574C19.282 12.6207 19.62 11.364 19.62 9.804C19.62 8.244 19.282 6.996 18.606 6.06C17.93 5.10667 17.0113 4.41334 15.85 3.98C14.6886 3.54667 13.3713 3.33 11.898 3.33H9.21998V7.49H6.43798V3.33H4.53998V20.75H9.21998V16.304" fill="url(#paint0_linear_2313_18)"/>
</g>
<defs>
<linearGradient id="paint0_linear_2313_18" x1="12" y1="0" x2="12" y2="24" gradientUnits="userSpaceOnUse">
<stop stop-color="#2DD4BF"/>
<stop offset="1" stop-color="#115E59"/>
</linearGradient>
<clipPath id="clip0_2313_18">
<rect width="24" height="24" fill="white"/>
</clipPath>
</defs>
</svg>
