<svg width="24" height="24" viewBox="0 0 24 24" fill="none" xmlns="http://www.w3.org/2000/svg">
<rect width="24" height="24" fill="url(#paint0_linear_2301_49)"/>
<path d="M12.849 14.2072C12.849 13.457 13.4573 12.8488 14.2075 12.8488C14.9578 12.8488 15.566 13.457 15.566 14.2072V15.5657H14.2075C13.4573 15.5657 12.849 14.9575 12.849 14.2072Z" fill="white"/>
<path d="M12.849 19.6415C12.849 18.8913 13.4573 18.283 14.2075 18.283H15.566V19.6415C15.566 20.3918 14.9578 21 14.2075 21C13.4573 21 12.849 20.3918 12.849 19.6415Z" fill="white"/>
<path d="M18.2829 15.5659L15.566 15.5657V18.283L18.2829 18.2829V15.5659Z" fill="white"/>
<path d="M18.2829 18.2829L19.6414 18.283C20.3917 18.283 20.9999 18.8913 20.9999 19.6415C20.9999 20.3918 20.3917 21 19.6414 21C18.8911 21 18.2829 20.3918 18.2829 19.6415L18.2829 18.2829Z" fill="white"/>
<path d="M18.2829 14.2072C18.2829 13.457 18.8911 12.8488 19.6414 12.8488C20.3916 12.8488 20.9998 13.457 20.9998 14.2072C20.9998 14.9575 20.3916 15.5657 19.6414 15.5657L18.2829 15.5659L18.2829 14.2072Z" fill="white"/>
<path fill-rule="evenodd" clip-rule="evenodd" d="M16.9245 3C14.6737 3 12.849 4.82463 12.849 7.07543C12.849 9.32623 14.6737 11.1509 16.9245 11.1509C19.1752 11.1509 20.9999 9.32623 20.9999 7.07543C20.9999 4.82463 19.1752 3 16.9245 3ZM16.9244 5.0377C15.799 5.0377 14.8866 5.95001 14.8866 7.07543C14.8866 8.2008 15.799 9.11313 16.9244 9.11313C18.0498 9.11313 18.9621 8.2008 18.9621 7.07543C18.9621 5.95001 18.0498 5.0377 16.9244 5.0377Z" fill="white"/>
<path fill-rule="evenodd" clip-rule="evenodd" d="M7.07543 3C4.82463 3 3 4.82463 3 7.07543C3 9.32623 4.82463 11.1509 7.07543 11.1509C9.32623 11.1509 11.1509 9.32623 11.1509 7.07543C11.1509 4.82463 9.32623 3 7.07543 3ZM7.07548 5.0377C5.95005 5.0377 5.03774 5.95001 5.03774 7.07543C5.03774 8.2008 5.95005 9.11313 7.07548 9.11313C8.20086 9.11313 9.11318 8.2008 9.11318 7.07543C9.11318 5.95001 8.20086 5.0377 7.07548 5.0377Z" fill="white"/>
<path fill-rule="evenodd" clip-rule="evenodd" d="M7.07543 12.8488C4.82463 12.8488 3 14.6734 3 16.9242C3 19.175 4.82463 20.9996 7.07543 20.9996C9.32623 20.9996 11.1509 19.175 11.1509 16.9242C11.1509 14.6734 9.32623 12.8488 7.07543 12.8488ZM7.07548 14.8868C5.95005 14.8868 5.03774 15.7992 5.03774 16.9246C5.03774 18.05 5.95005 18.9623 7.07548 18.9623C8.20086 18.9623 9.11318 18.05 9.11318 16.9246C9.11318 15.7992 8.20086 14.8868 7.07548 14.8868Z" fill="white"/>
<defs>
<linearGradient id="paint0_linear_2301_49" x1="3.72" y1="4.8" x2="20.28" y2="20.16" gradientUnits="userSpaceOnUse">
<stop stop-color="#9FCFFF"/>
<stop offset="0.505" stop-color="#7D75D8"/>
<stop offset="1" stop-color="#D299EA"/>
</linearGradient>
</defs>
</svg>
