<svg width="24" height="24" viewBox="0 0 24 24" fill="none" xmlns="http://www.w3.org/2000/svg">
<rect width="24" height="24" fill="url(#paint0_linear_2301_85)"/>
<g filter="url(#filter0_b_2301_85)">
<path d="M11.9922 18.44L2.79219 13.66V11.16L11.9922 6.36L21.1922 11.16V13.66L11.9922 18.44ZM11.9722 16.04L18.0322 12.88C18.2989 12.7467 18.5389 12.64 18.7522 12.56C18.9789 12.48 19.1455 12.4333 19.2522 12.42C19.1455 12.3933 18.9789 12.3467 18.7522 12.28C18.5255 12.2 18.2922 12.0933 18.0522 11.96L11.9922 8.74L6.03219 11.9C5.77885 12.0467 5.53885 12.16 5.31219 12.24C5.07219 12.3067 4.89885 12.3467 4.79219 12.36C4.89885 12.3867 5.07219 12.44 5.31219 12.52C5.53885 12.6 5.77885 12.7067 6.03219 12.84L11.9722 16.04Z" fill="url(#paint1_linear_2301_85)"/>
</g>
<defs>
<filter id="filter0_b_2301_85" x="-7.20781" y="-3.64" width="38.4" height="32.08" filterUnits="userSpaceOnUse" color-interpolation-filters="sRGB">
<feFlood flood-opacity="0" result="BackgroundImageFix"/>
<feGaussianBlur in="BackgroundImageFix" stdDeviation="5"/>
<feComposite in2="SourceAlpha" operator="in" result="effect1_backgroundBlur_2301_85"/>
<feBlend mode="normal" in="SourceGraphic" in2="effect1_backgroundBlur_2301_85" result="shape"/>
</filter>
<linearGradient id="paint0_linear_2301_85" x1="12" y1="0" x2="12" y2="24" gradientUnits="userSpaceOnUse">
<stop stop-color="#E11D48"/>
<stop offset="1" stop-color="#DB2777"/>
</linearGradient>
<linearGradient id="paint1_linear_2301_85" x1="12" y1="7" x2="12" y2="18" gradientUnits="userSpaceOnUse">
<stop stop-color="#FCE7F3"/>
<stop offset="1" stop-color="#FFE4E6"/>
</linearGradient>
</defs>
</svg>
