<svg width="24" height="24" viewBox="0 0 24 24" fill="none" xmlns="http://www.w3.org/2000/svg">
<g clip-path="url(#clip0_2298_43)">
<rect width="24" height="24" fill="url(#paint0_linear_2298_43)"/>
<g style="mix-blend-mode:soft-light" filter="url(#filter0_f_2298_43)">
<rect width="24" height="24" fill="#67E8F9"/>
</g>
<g style="mix-blend-mode:plus-lighter" filter="url(#filter1_f_2298_43)">
<path d="M12.5776 21C10.8763 21 9.47016 20.7739 8.35913 20.3217C7.2481 19.8696 6.42351 19.2 5.88535 18.313C5.3472 17.4261 5.07812 16.3391 5.07812 15.0522V14.713H8.90597V14.9739C8.90597 15.6174 9.01013 16.1217 9.21844 16.487C9.42676 16.8348 9.8 17.087 10.3382 17.2435C10.8937 17.3826 11.7009 17.4522 12.7599 17.4522C13.8709 17.4522 14.6087 17.3304 14.9732 17.087C15.3378 16.8435 15.5201 16.4261 15.5201 15.8348C15.5201 15.4348 15.4593 15.113 15.3378 14.8696C15.2336 14.6261 14.9906 14.4261 14.6087 14.2696C14.2268 14.0957 13.6278 13.9478 12.8119 13.8261L9.73924 13.2783C8.62821 13.087 7.71682 12.7739 7.00506 12.3391C6.31067 11.887 5.79855 11.3304 5.46872 10.6696C5.15624 9.9913 5 9.2 5 8.29565C5 7.3913 5.22568 6.53913 5.67703 5.73913C6.14575 4.93913 6.89222 4.28696 7.91646 3.78261C8.95805 3.26087 10.3034 3 11.9526 3C13.6192 3 14.9646 3.26087 15.9888 3.78261C17.0304 4.30435 17.7942 5.02609 18.2803 5.94783C18.7664 6.85217 19.0094 7.88696 19.0094 9.05217V9.26087H15.1555V8.97391C15.1555 8.36522 15.06 7.88696 14.8691 7.53913C14.6781 7.1913 14.3396 6.93913 13.8535 6.78261C13.3675 6.62609 12.6904 6.54783 11.8224 6.54783C10.7114 6.54783 9.93888 6.67826 9.50488 6.93913C9.08825 7.18261 8.87993 7.58261 8.87993 8.13913C8.87993 8.50435 8.94937 8.8 9.08825 9.02609C9.22712 9.23478 9.47016 9.4 9.81736 9.52174C10.1819 9.64348 10.7027 9.77391 11.3797 9.91304L14.4785 10.513C15.6937 10.7391 16.6571 11.1043 17.3689 11.6087C18.098 12.0957 18.6188 12.687 18.9313 13.3826C19.2438 14.0783 19.4 14.8522 19.4 15.7043C19.4 16.6261 19.1743 17.4957 18.723 18.313C18.2716 19.113 17.5512 19.7652 16.5617 20.2696C15.5722 20.7565 14.2441 21 12.5776 21Z" fill="#38BDF8"/>
</g>
<g style="mix-blend-mode:plus-lighter">
<path d="M12.5776 21C10.8763 21 9.47016 20.7739 8.35913 20.3217C7.2481 19.8696 6.42351 19.2 5.88535 18.313C5.3472 17.4261 5.07812 16.3391 5.07812 15.0522V14.713H8.90597V14.9739C8.90597 15.6174 9.01013 16.1217 9.21844 16.487C9.42676 16.8348 9.8 17.087 10.3382 17.2435C10.8937 17.3826 11.7009 17.4522 12.7599 17.4522C13.8709 17.4522 14.6087 17.3304 14.9732 17.087C15.3378 16.8435 15.5201 16.4261 15.5201 15.8348C15.5201 15.4348 15.4593 15.113 15.3378 14.8696C15.2336 14.6261 14.9906 14.4261 14.6087 14.2696C14.2268 14.0957 13.6278 13.9478 12.8119 13.8261L9.73924 13.2783C8.62821 13.087 7.71682 12.7739 7.00506 12.3391C6.31067 11.887 5.79855 11.3304 5.46872 10.6696C5.15624 9.9913 5 9.2 5 8.29565C5 7.3913 5.22568 6.53913 5.67703 5.73913C6.14575 4.93913 6.89222 4.28696 7.91646 3.78261C8.95805 3.26087 10.3034 3 11.9526 3C13.6192 3 14.9646 3.26087 15.9888 3.78261C17.0304 4.30435 17.7942 5.02609 18.2803 5.94783C18.7664 6.85217 19.0094 7.88696 19.0094 9.05217V9.26087H15.1555V8.97391C15.1555 8.36522 15.06 7.88696 14.8691 7.53913C14.6781 7.1913 14.3396 6.93913 13.8535 6.78261C13.3675 6.62609 12.6904 6.54783 11.8224 6.54783C10.7114 6.54783 9.93888 6.67826 9.50488 6.93913C9.08825 7.18261 8.87993 7.58261 8.87993 8.13913C8.87993 8.50435 8.94937 8.8 9.08825 9.02609C9.22712 9.23478 9.47016 9.4 9.81736 9.52174C10.1819 9.64348 10.7027 9.77391 11.3797 9.91304L14.4785 10.513C15.6937 10.7391 16.6571 11.1043 17.3689 11.6087C18.098 12.0957 18.6188 12.687 18.9313 13.3826C19.2438 14.0783 19.4 14.8522 19.4 15.7043C19.4 16.6261 19.1743 17.4957 18.723 18.313C18.2716 19.113 17.5512 19.7652 16.5617 20.2696C15.5722 20.7565 14.2441 21 12.5776 21Z" fill="#22D3EE"/>
</g>
</g>
<defs>
<filter id="filter0_f_2298_43" x="-4" y="-4" width="32" height="32" filterUnits="userSpaceOnUse" color-interpolation-filters="sRGB">
<feFlood flood-opacity="0" result="BackgroundImageFix"/>
<feBlend mode="normal" in="SourceGraphic" in2="BackgroundImageFix" result="shape"/>
<feGaussianBlur stdDeviation="2" result="effect1_foregroundBlur_2298_43"/>
</filter>
<filter id="filter1_f_2298_43" x="3" y="1" width="18.4" height="22" filterUnits="userSpaceOnUse" color-interpolation-filters="sRGB">
<feFlood flood-opacity="0" result="BackgroundImageFix"/>
<feBlend mode="normal" in="SourceGraphic" in2="BackgroundImageFix" result="shape"/>
<feGaussianBlur stdDeviation="1" result="effect1_foregroundBlur_2298_43"/>
</filter>
<linearGradient id="paint0_linear_2298_43" x1="12" y1="0" x2="12" y2="24" gradientUnits="userSpaceOnUse">
<stop stop-color="#082F49"/>
<stop offset="1" stop-color="#020617"/>
</linearGradient>
<clipPath id="clip0_2298_43">
<rect width="24" height="24" fill="white"/>
</clipPath>
</defs>
</svg>
