<svg width="24" height="24" viewBox="0 0 24 24" fill="none" xmlns="http://www.w3.org/2000/svg">
<rect width="24" height="24" fill="#38BDF8"/>
<path fill-rule="evenodd" clip-rule="evenodd" d="M12.0002 7C9.59996 7 8.10023 8.19288 7.49991 10.5786C8.40004 9.38575 9.45006 8.93851 10.65 9.23655C11.3346 9.40656 11.8242 9.90036 12.3656 10.4471C13.2481 11.3373 14.2695 12.3676 16.5001 12.3676C18.8999 12.3676 20.4 11.1747 21 8.78931C20.1002 9.98219 19.0502 10.4294 17.8503 10.131C17.1653 9.96103 16.6757 9.46723 16.1343 8.92087C15.2518 8.02992 14.2307 7 12.0002 7ZM7.49991 12.3676C5.10005 12.3676 3.59996 13.5605 3 15.9462C3.90012 14.7533 4.95015 14.3061 6.14973 14.6041C6.8347 14.7741 7.32426 15.2679 7.86567 15.8146C8.74816 16.7049 9.76927 17.7352 12.0002 17.7352C14.4 17.7352 15.9001 16.5426 16.5001 14.1569C15.6 15.3498 14.5499 15.797 13.35 15.499C12.6654 15.3286 12.1758 14.8348 11.6344 14.2885C10.7519 13.3982 9.73047 12.3676 7.49991 12.3676Z" fill="white"/>
</svg>
